<?xml version="1.0" encoding="UTF-8"?>
<svg version="1.1" xmlns="http://www.w3.org/2000/svg" width="256" height="90">
<path d="M0 0 C1.98 0 3.96 0 6 0 C9 5.75 9 5.75 9 8 C10.11890625 7.9278125 11.2378125 7.855625 12.390625 7.78125 C22.99186467 7.14924653 33.56707597 6.89130984 44.1875 6.875 C46.05873535 6.86823242 46.05873535 6.86823242 47.96777344 6.86132812 C49.12696289 6.86326172 50.28615234 6.86519531 51.48046875 6.8671875 C52.52098389 6.86831543 53.56149902 6.86944336 54.63354492 6.87060547 C57 7 57 7 58 8 C60.69235776 8.23678716 63.36498156 8.42198025 66.0625 8.5625 C67.20041992 8.62727539 67.20041992 8.62727539 68.36132812 8.69335938 C70.24065438 8.79973633 72.12030244 8.90039934 74 9 C74 9.66 74 10.32 74 11 C81.26 11 88.52 11 96 11 C96 12.98 96 14.96 96 17 C97.2004426 16.98673864 97.2004426 16.98673864 98.42513657 16.97320938 C117.88736146 16.75959409 137.34968835 16.56819527 156.81237411 16.40159988 C166.22434407 16.32049873 175.63613034 16.23184651 185.04785156 16.12548828 C193.2499737 16.03281834 201.45208823 15.95424433 209.65450501 15.89267898 C213.99869841 15.859578 218.34256591 15.81936396 222.68651581 15.7622757 C226.77398497 15.70878065 230.86117867 15.67411435 234.94894409 15.65397072 C236.45023457 15.6432382 237.95149374 15.62558881 239.45261383 15.60055351 C241.50039915 15.56742983 243.54857047 15.56147584 245.59661865 15.5569458 C246.74332912 15.54588428 247.8900396 15.53482277 249.07149887 15.52342606 C252.65878612 16.10720853 253.85757738 17.10760303 256 20 C256 20.99 256 21.98 256 23 C203.2 23 150.4 23 96 23 C96 24.65 96 26.3 96 28 C94.39163783 29.60836217 92.60292297 29.20307572 90.37890625 29.28125 C89.44369141 29.31863281 88.50847656 29.35601562 87.54492188 29.39453125 C86.56072266 29.42933594 85.57652344 29.46414062 84.5625 29.5 C82.62614952 29.56874617 80.68993487 29.64146875 78.75390625 29.71875 C77.89095947 29.74904297 77.0280127 29.77933594 76.13891602 29.81054688 C73.94887445 29.87283144 73.94887445 29.87283144 72 31 C70.49327515 31.20700621 68.97987786 31.36679712 67.46484375 31.5 C66.57345703 31.5825 65.68207031 31.665 64.76367188 31.75 C62.87568134 31.91700953 60.98766032 32.0836748 59.09960938 32.25 C58.20951172 32.3325 57.31941406 32.415 56.40234375 32.5 C55.17245728 32.60828125 55.17245728 32.60828125 53.91772461 32.71875 C51.995216 32.80577818 51.995216 32.80577818 51 34 C50.92570175 35.33142464 50.91666667 36.66666667 50.9375 38 C50.94910156 39.2065625 50.94910156 39.2065625 50.9609375 40.4375 C50.97382812 41.283125 50.98671875 42.12875 51 43 C51.02540554 44.66660324 51.04647385 46.33328018 51.0625 48 C51.07410156 48.7425 51.08570313 49.485 51.09765625 50.25 C51 52 51 52 50 53 C47.83519203 53.0989294 45.66706215 53.129711 43.5 53.125 C42.3140625 53.12757812 41.128125 53.13015625 39.90625 53.1328125 C37 53 37 53 36 52 C35.84344973 50.51361008 35.74933057 49.02050873 35.68359375 47.52734375 C35.64548584 46.71773193 35.60737793 45.90812012 35.56811523 45.07397461 C35.52501221 44.03893799 35.48190918 43.00390137 35.4375 41.9375 C35.293125 38.658125 35.14875 35.37875 35 32 C22.13 31.505 22.13 31.505 9 31 C8.34 32.98 7.68 34.96 7 37 C6.67 37.66 6.34 38.32 6 39 C4.02 39 2.04 39 0 39 C0 26.13 0 13.26 0 0 Z M1 2 C1 13.55 1 25.1 1 37 C1.99 37 2.98 37 4 37 C4 25.45 4 13.9 4 2 C3.01 2 2.02 2 1 2 Z M6 8 C6 15.59 6 23.18 6 31 C6.33 31 6.66 31 7 31 C7 23.41 7 15.82 7 8 C6.67 8 6.34 8 6 8 Z M31 10 C31 15.94 31 21.88 31 28 C38.92 28 46.84 28 55 28 C55 22.06 55 16.12 55 10 C47.08 10 39.16 10 31 10 Z M10 11 C10 16.94 10 22.88 10 29 C15.61 29 21.22 29 27 29 C27 23.06 27 17.12 27 11 C21.39 11 15.78 11 10 11 Z M59 12 C59 17.28 59 22.56 59 28 C63.29 28 67.58 28 72 28 C71.67 22.72 71.34 17.44 71 12 C67.04 12 63.08 12 59 12 Z M74 14 C74 17.96 74 21.92 74 26 C80.6 26 87.2 26 94 26 C94 22.04 94 18.08 94 14 C87.4 14 80.8 14 74 14 Z M96 19 C96 19.66 96 20.32 96 21 C147.81 21 199.62 21 253 21 C252.67 20.34 252.34 19.68 252 19 C200.52 19 149.04 19 96 19 Z M39 35 C39 36.98 39 38.96 39 41 C41.97 41 44.94 41 48 41 C48 39.02 48 37.04 48 35 C45.03 35 42.06 35 39 35 Z M39 44 C38.67 45.98 38.34 47.96 38 50 C41.3 50 44.6 50 48 50 C48 48.02 48 46.04 48 44 C45.03 44 42.06 44 39 44 Z " fill="#FFFFFF" transform="translate(0,37)"/>
<path d="M0 0 C1.98338933 1.8594275 3.39320753 3.7788457 5 6 C5.391875 5.21625 5.78375 4.4325 6.1875 3.625 C8.30791512 0.55405397 9.39761254 -0.16223547 13 -1 C16.09946309 -0.81403221 18.17290256 -0.64482241 20.6484375 1.28515625 C22.77896252 3.98833683 22.52490475 6.29894998 22.4375 9.63671875 C21.69864858 13.62783581 19.60106566 15.94374785 17 19 C18.98 19.33 20.96 19.66 23 20 C23.06703125 18.99839844 23.1340625 17.99679688 23.203125 16.96484375 C23.86535691 12.36974158 26.05081286 9.24852868 28.75 5.5625 C29.18054688 4.92634766 29.61109375 4.29019531 30.0546875 3.63476562 C33.29353948 -0.8792631 33.29353948 -0.8792631 36.765625 -1.47265625 C39 -1 39 -1 40 0 C40.07313567 2.53049402 40.09247527 5.03304837 40.0625 7.5625 C40.05798828 8.27341797 40.05347656 8.98433594 40.04882812 9.71679688 C40.03700864 11.47790013 40.01907263 13.23896036 40 15 C40.66 15 41.32 15 42 15 C42 16.98 42 18.96 42 21 C41.34 21 40.68 21 40 21 C40 22.65 40 24.3 40 26 C38.02 26 36.04 26 34 26 C33.505 25.01 33.505 25.01 33 24 C33.495 22.515 33.495 22.515 34 21 C30.37 21 26.74 21 23 21 C23 22.65 23 24.3 23 26 C17.06 26 11.12 26 5 26 C4.67 25.01 4.34 24.02 4 23 C5.29296875 21.1328125 5.29296875 21.1328125 7.1875 19.125 C7.83332031 18.42117187 8.47914063 17.71734375 9.14453125 16.9921875 C9.75683594 16.33476562 10.36914062 15.67734375 11 15 C14.4942655 10.98056481 14.4942655 10.98056481 16 6 C14.68 6 13.36 6 12 6 C11.67 7.32 11.34 8.64 11 10 C9.02 10 7.04 10 5 10 C5.061875 11.19625 5.12375 12.3925 5.1875 13.625 C5.17850543 18.70693287 3.67418062 22.14644288 0.25 25.9375 C-3.16512439 27.55019763 -5.41181115 26.96112201 -9 26 C-12.1616433 23.58716696 -13.27590414 21.83425998 -14 18 C-14.43193815 11.8222799 -14.66548433 6.24493744 -10.5625 1.25 C-7.0625467 -1.54996264 -4.09037237 -1.22711171 0 0 Z M-6 6 C-7.9078584 9.1749094 -8.1609041 11.10585211 -7.625 14.75 C-7.51414063 15.54921875 -7.40328125 16.3484375 -7.2890625 17.171875 C-7.19367188 17.77515625 -7.09828125 18.3784375 -7 19 C-5.02 19.495 -5.02 19.495 -3 20 C-1.75622607 17.51245214 -1.86693765 15.77344699 -1.875 13 C-1.87113281 11.6696875 -1.87113281 11.6696875 -1.8671875 10.3125 C-1.84872098 7.97323034 -1.84872098 7.97323034 -3 6 C-3.99 6 -4.98 6 -6 6 Z M32 12 C31.67 12.99 31.34 13.98 31 15 C31.66 15 32.32 15 33 15 C32.67 14.01 32.34 13.02 32 12 Z " fill="#FFFFFF" transform="translate(210,2)"/>
<path d="M0 0 C1.29808594 -0.01675781 2.59617187 -0.03351562 3.93359375 -0.05078125 C7.70505501 0.32677085 9.62029167 0.96320818 12.5625 3.3125 C13 5.875 13 5.875 12.5625 8.3125 C11.9025 8.9725 11.2425 9.6325 10.5625 10.3125 C8.50390625 10.25390625 8.50390625 10.25390625 6.125 9.875 C2.95664925 9.37912962 1.69128862 9.26957046 -1.4375 10.3125 C-2.83685013 13.11120027 -2.69015405 15.21748792 -2.4375 18.3125 C-1.4375 20.3125 -1.4375 20.3125 0.5625 21.3125 C3.54042745 21.56594063 5.93094066 21.48793315 8.8125 20.6875 C9.39 20.56375 9.9675 20.44 10.5625 20.3125 C11.2225 20.9725 11.8825 21.6325 12.5625 22.3125 C12.4375 24.3125 12.4375 24.3125 11.5625 26.3125 C8.67924691 28.11612088 6.43825165 28.58562159 3.0625 28.5625 C2.3096875 28.56765625 1.556875 28.5728125 0.78125 28.578125 C-1.6671721 28.28500404 -3.31054054 27.53066769 -5.4375 26.3125 C-5.4375 26.9725 -5.4375 27.6325 -5.4375 28.3125 C-11.46286998 29.0355444 -11.46286998 29.0355444 -14.23828125 26.9765625 C-15.70522057 25.48511584 -17.07879731 23.90317631 -18.4375 22.3125 C-19.4275 24.2925 -20.4175 26.2725 -21.4375 28.3125 C-23.0875 28.3125 -24.7375 28.3125 -26.4375 28.3125 C-27.19113052 24.96158229 -27.55729937 21.88140188 -27.53515625 18.44921875 C-27.53193359 17.56298828 -27.52871094 16.67675781 -27.52539062 15.76367188 C-27.51701172 14.85166016 -27.50863281 13.93964844 -27.5 13 C-27.49548828 12.06865234 -27.49097656 11.13730469 -27.48632812 10.17773438 C-27.47459234 7.88925627 -27.45817363 5.60091192 -27.4375 3.3125 C-23.9725 2.8175 -23.9725 2.8175 -20.4375 2.3125 C-20.1075 4.6225 -19.7775 6.9325 -19.4375 9.3125 C-18.90640625 8.83039062 -18.3753125 8.34828125 -17.828125 7.8515625 C-16.76851562 6.90410156 -16.76851562 6.90410156 -15.6875 5.9375 C-14.99140625 5.31101562 -14.2953125 4.68453125 -13.578125 4.0390625 C-9.05019719 0.38697474 -5.85539377 0.0174095 0 0 Z M-12.125 9.5625 C-12.76824219 10.16578125 -13.41148438 10.7690625 -14.07421875 11.390625 C-15.65593903 13.20097265 -15.65593903 13.20097265 -15.3359375 15.375 C-14.30950082 17.58853302 -13.30198532 18.58651124 -11.375 20.0625 C-10.405625 20.805 -9.43625 21.5475 -8.4375 22.3125 C-8.46070313 21.49265625 -8.48390625 20.6728125 -8.5078125 19.828125 C-8.52585937 18.75046875 -8.54390625 17.6728125 -8.5625 16.5625 C-8.58570313 15.49515625 -8.60890625 14.4278125 -8.6328125 13.328125 C-8.44237687 10.38779894 -7.96420104 8.78888122 -6.4375 6.3125 C-9.29293983 6.3125 -10.10120664 7.60849262 -12.125 9.5625 Z M-8.4375 22.3125 C-7.4375 24.3125 -7.4375 24.3125 -7.4375 24.3125 Z " fill="#FFFFFF" transform="translate(96.4375,-0.3125)"/>
<path d="M0 0 C2.31 0 4.62 0 7 0 C7.23710693 0.63091553 7.47421387 1.26183105 7.71850586 1.91186523 C8.78870612 4.75480595 9.86304543 7.59616458 10.9375 10.4375 C11.49727539 11.92733398 11.49727539 11.92733398 12.06835938 13.44726562 C12.60493164 14.86362305 12.60493164 14.86362305 13.15234375 16.30859375 C13.48226318 17.18314209 13.81218262 18.05769043 14.15209961 18.95874023 C14.82992317 20.95717752 14.82992317 20.95717752 16 22 C16.23710693 21.36908447 16.47421387 20.73816895 16.71850586 20.08813477 C17.78870612 17.24519405 18.86304543 14.40383542 19.9375 11.5625 C20.49727539 10.07266602 20.49727539 10.07266602 21.06835938 8.55273438 C21.42607422 7.60849609 21.78378906 6.66425781 22.15234375 5.69140625 C22.48226318 4.81685791 22.81218262 3.94230957 23.15209961 3.04125977 C24 1 24 1 25 0 C26.99958364 -0.04080783 29.00045254 -0.04254356 31 0 C31.39832031 1.00160156 31.79664063 2.00320313 32.20703125 3.03515625 C32.74214036 4.37762296 33.27729928 5.72006981 33.8125 7.0625 C34.07353516 7.71927734 34.33457031 8.37605469 34.60351562 9.05273438 C34.86455078 9.70693359 35.12558594 10.36113281 35.39453125 11.03515625 C35.6570166 11.69402832 35.91950195 12.35290039 36.18994141 13.03173828 C36.98299655 14.95868542 37.83757539 16.84906002 38.69921875 18.74609375 C40 22 40 22 40 26 C38.02 26 36.04 26 34 26 C33.76539063 25.35546875 33.53078125 24.7109375 33.2890625 24.046875 C32.18838927 21.7922092 32.18838927 21.7922092 29.8359375 21.390625 C28.61777344 21.32101563 28.61777344 21.32101563 27.375 21.25 C26.55773438 21.19328125 25.74046875 21.1365625 24.8984375 21.078125 C24.27195313 21.05234375 23.64546875 21.0265625 23 21 C22.67 22.65 22.34 24.3 22 26 C17.71 26 13.42 26 9 26 C8.505 23.525 8.505 23.525 8 21 C6.54052295 21.06006078 5.08220728 21.1488689 3.625 21.25 C2.81289062 21.29640625 2.00078125 21.3428125 1.1640625 21.390625 C-1.18838927 21.7922092 -1.18838927 21.7922092 -2.2890625 24.046875 C-2.52367187 24.69140625 -2.75828125 25.3359375 -3 26 C-4.98 26 -6.96 26 -9 26 C-8.38443385 20.11792344 -6.17339219 15.03902565 -3.9375 9.625 C-3.56044922 8.69816406 -3.18339844 7.77132813 -2.79492188 6.81640625 C-1.86873604 4.54197521 -0.93697332 2.27000333 0 0 Z M3 10 C2.67 11.32 2.34 12.64 2 14 C2.99 13.67 3.98 13.34 5 13 C4.34 12.01 3.68 11.02 3 10 Z M27 11 C27 11.99 27 12.98 27 14 C27.66 14 28.32 14 29 14 C28.67 13.01 28.34 12.02 28 11 C27.67 11 27.34 11 27 11 Z " fill="#FFFFFF" transform="translate(9,2)"/>
<path d="M0 0 C1.98 0 3.96 0 6 0 C8.1171875 2.40625 8.1171875 2.40625 9.875 5.5 C10.47054687 6.5209375 11.06609375 7.541875 11.6796875 8.59375 C12.11539063 9.3878125 12.55109375 10.181875 13 11 C13.33 7.37 13.66 3.74 14 0 C16.31 0 18.62 0 21 0 C21 8.58 21 17.16 21 26 C19.02 26 17.04 26 15 26 C12.6640625 23.59375 12.6640625 23.59375 10.625 20.5 C9.93664062 19.4790625 9.24828125 18.458125 8.5390625 17.40625 C8.03117188 16.6121875 7.52328125 15.818125 7 15 C6.67 18.63 6.34 22.26 6 26 C4.02 26 2.04 26 0 26 C0 17.42 0 8.84 0 0 Z " fill="#FFFFFF" transform="translate(141,2)"/>
<path d="M0 0 C3.3821197 2.63053755 4.97755075 4.763114 5.5703125 9.0859375 C5.7639188 13.3839973 5.48607693 16.23063076 3.6875 20.1875 C0.69247705 23.33611387 -1.57559237 24.54720458 -5.75 25.75 C-10.53746463 25.58491501 -13.95363184 24.70273079 -17.75 21.75 C-21.12551414 17.9088977 -21.26944055 14.10683545 -21.09375 9.1875 C-20.56780954 5.45810402 -19.33116456 3.46353197 -16.75 0.75 C-10.76464209 -2.75086972 -6.28434004 -2.8565182 0 0 Z M-12.5625 5.875 C-14.2054776 8.46917516 -14.49672568 10.71070817 -14.75 13.75 C-13.99849977 17.02773504 -13.99849977 17.02773504 -10.75 18.75 C-7.13449608 19.21155369 -5.41363906 19.20406883 -2.375 17.125 C-0.26293494 14.03813568 -0.13804855 12.4217087 -0.75 8.75 C-2.25 6.25 -2.25 6.25 -4.75 4.75 C-7.92374516 4.29660783 -9.80655076 4.16441082 -12.5625 5.875 Z " fill="#FFFFFF" transform="translate(132.75,3.25)"/>
<path d="M0 0 C2.95711228 2.38476797 3.00236354 4.01802198 3.5 7.8125 C3.35343167 12.69505744 1.05702306 15.33157233 -2 19 C-0.02 19.33 1.96 19.66 4 20 C4 21.98 4 23.96 4 26 C-2.27 26 -8.54 26 -15 26 C-13.77508861 19.87544306 -11.60517523 18.39533379 -7.12890625 14.37890625 C-4.72647709 11.69435697 -3.90965185 9.45468871 -3 6 C-4.98491642 6.26676204 -4.98491642 6.26676204 -7 7 C-7.33 7.99 -7.66 8.98 -8 10 C-9.98 10 -11.96 10 -14 10 C-13.82979357 5.57463272 -13.6436908 3.61303886 -10.375 0.5 C-6.28030435 -1.31986474 -4.26601689 -1.28785415 0 0 Z " fill="#FFFFFF" transform="translate(192,2)"/>
<path d="M0 0 C2.3125 1.375 2.3125 1.375 4 3 C4 3.99 4 4.98 4 6 C-0.75 8 -0.75 8 -3 8 C-2.05125 8.7425 -1.1025 9.485 -0.125 10.25 C4.14101759 13.85039782 4.14101759 13.85039782 5 17 C4.81145593 20.07955322 4.51332877 22.21649819 2.8125 24.8125 C0.1702365 26.54363816 -1.85229226 26.87409169 -5 27 C-7.87872577 25.6260627 -9.74989437 24.25010563 -12 22 C-12 21.01 -12 20.02 -12 19 C-9.8125 17.8125 -9.8125 17.8125 -7 17 C-4.1875 18.375 -4.1875 18.375 -2 20 C-3.18033638 16.81309178 -4.26662117 15.79867381 -7.0625 13.6875 C-10 11 -10 11 -11.0625 7.4375 C-11 4 -11 4 -9.75 1.625 C-6.52170324 -1.37270414 -4.01083899 -1.17390409 0 0 Z " fill="#FFFFFF" transform="translate(61,2)"/>
<path d="M0 0 C3.3 0 6.6 0 10 0 C10.38218767 1.65614657 10.71395102 3.32457024 11 5 C10 6 10 6 7.96875 6.1328125 C7.1540625 6.13023438 6.339375 6.12765625 5.5 6.125 C4.6853125 6.12757812 3.870625 6.13015625 3.03125 6.1328125 C1 6 1 6 0 5 C0 3.35 0 1.7 0 0 Z " fill="#FFFFFF" transform="translate(165,15)"/>
</svg>
